<svg width="128" height="186" viewBox="0 0 128 186" fill="none" xmlns="http://www.w3.org/2000/svg">
<path d="M0.674927 49.1347V17.0723L58.9703 50.8003V83.6956L0.674927 49.1347Z" fill="#8F90FC"/>
<path d="M58.9703 50.8003L88.9508 34.5608L29.8226 0L0.674927 17.0722L58.9703 50.8003Z" fill="#6A6CF9"/>
<path d="M68.131 88.6922V56.2134L96.8623 71.62V104.932L68.131 88.6922Z" fill="#3F639C"/>
<path d="M126.426 55.7969L96.8623 72.0363V104.932L126.426 89.1085V55.7969Z" fill="#2C4B7B"/>
<path d="M96.8623 39.9741L68.131 56.2136L96.8623 72.0366L126.426 55.7972L96.8623 39.9741Z" fill="#21406F"/>
<path d="M2.34058 88.2758V57.8789L30.2391 74.5347V104.932L2.34058 88.2758Z" fill="#3F639C"/>
<path d="M38.9834 110.761V80.3643L98.9444 114.925V144.906L38.9834 110.761Z" fill="#3F639C"/>
<path d="M126.843 129.499V97.8525L98.528 115.341V145.322L126.843 129.499Z" fill="#2C4B7B"/>
<path d="M1.50769 130.332V98.269L62.3015 132.83V164.892L1.50769 130.332Z" fill="#3F639C"/>
<path d="M69.7966 168.224V137.827L98.9443 154.066V185.712L69.7966 168.224Z" fill="#3F639C"/>
<path d="M127.676 168.64V137.827L98.528 154.066V185.296L127.676 168.64Z" fill="#2C4B7B"/>
</svg>
